<svg width="662.28125px" height="124.39999999999999px" xmlns="http://www.w3.org/2000/svg" viewBox="-81.140625 12.800000000000004 662.28125 124.39999999999999" style="background: rgb(0, 0, 0);" preserveAspectRatio="xMidYMid"><defs><filter id="editing-hover" x="-100%" y="-100%" width="300%" height="300%"><feFlood flood-color="#000000" result="flood"></feFlood><feComposite operator="in" in2="SourceAlpha" in="flood" result="shadow"></feComposite><feOffset dx="-4" dy="-4" in="SourceGraphic" result="offset-1"></feOffset><feOffset dx="4" dy="4" in="shadow" result="offset-2"></feOffset><feMerge><feMergeNode in="offset-2"></feMergeNode><feMergeNode in="offset-1"></feMergeNode></feMerge></filter></defs><g filter="url(#editing-hover)"><g transform="translate(13.68998384475708, 106.29000473022461)"><path d="M25.37-13.65L38.14-43.18L45.29-43.18L45.29 0L38.14 0L38.14-29.71L28.48-5.68L22.27-5.68L12.54-29.71L12.54 0L5.39 0L5.39-43.18L12.54-43.18L25.37-13.65ZM80.45-33.05L87.60-33.05L87.60-33.05Q84.38-24.43 81.86-17.78L81.86-17.78L81.86-17.78Q79.34-11.13 77.46-6.12L77.46-6.12L77.46-6.12Q75.59-1.11 74.15 2.34L74.15 2.34L74.15 2.34Q72.71 5.80 71.51 8.12L71.51 8.12L71.51 8.12Q70.31 10.43 69.26 11.75L69.26 11.75L69.26 11.75Q68.20 13.07 67.09 13.77L67.09 13.77L67.09 13.77Q65.98 14.47 64.66 14.62L64.66 14.62L64.66 14.62Q63.34 14.77 61.64 14.77L61.64 14.77L61.64 14.77Q61.11 14.77 60.41 14.62L60.41 14.62L60.41 14.62Q59.71 14.47 59.03 14.27L59.03 14.27L59.03 14.27Q58.36 14.06 57.83 13.86L57.83 13.86L57.83 13.86Q57.30 13.65 57.13 13.59L57.13 13.59L57.13 13.59Q57.36 12.54 57.60 11.60L57.60 11.60L57.60 11.60Q57.77 10.78 57.98 10.05L57.98 10.05L57.98 10.05Q58.18 9.32 58.30 9.02L58.30 9.02L58.30 9.02Q58.77 9.02 59.74 9.32L59.74 9.32L59.74 9.32Q60.70 9.61 61.17 9.61L61.17 9.61L61.17 9.61Q62.11 9.61 62.84 9.52L62.84 9.52L62.84 9.52Q63.57 9.43 64.16 8.99L64.16 8.99L64.16 8.99Q64.75 8.55 65.27 7.71L65.27 7.71L65.27 7.71Q65.80 6.86 66.45 5.27L66.45 5.27L68.67 0L55.14-33.05L62.23-33.05L71.89-7.62L80.45-33.05ZM138.52-1.17L138.52 0L131.37 0L131.37-17.99L131.37-17.99Q131.37-19.98 131.19-21.80L131.19-21.80L131.19-21.80Q131.02-23.61 130.37-25.02L130.37-25.02L130.37-25.02Q129.73-26.43 128.61-27.22L128.61-27.22L128.61-27.22Q127.50-28.01 125.51-28.01L125.51-28.01L125.51-28.01Q124.86-28.01 123.84-27.83L123.84-27.83L123.84-27.83Q122.81-27.66 121.73-27.30L121.73-27.30L121.73-27.30Q120.64-26.95 119.68-26.43L119.68-26.43L119.68-26.43Q118.71-25.90 118.24-25.20L118.24-25.20L118.24-24.84L118.24-24.73L118.24-11.72L118.24-11.60L118.24 0L111.15 0L111.15-33.05L117.48-33.05L118.24-29.71L118.24-29.71Q118.95-30.35 120.03-31.03L120.03-31.03L120.03-31.03Q121.11-31.70 122.40-32.23L122.40-32.23L122.40-32.23Q123.69-32.75 125.04-33.08L125.04-33.08L125.04-33.08Q126.39-33.40 127.68-33.40L127.68-33.40L127.68-33.40Q130.31-33.40 132.13-32.29L132.13-32.29L132.13-32.29Q133.95-31.17 135.76-29.41L135.76-29.41L135.76-29.41Q136.76-28.42 137.31-27.10L137.31-27.10L137.31-27.10Q137.87-25.78 138.13-24.35L138.13-24.35L138.13-24.35Q138.40-22.91 138.46-21.45L138.46-21.45L138.46-21.45Q138.52-19.98 138.52-18.57L138.52-18.57L138.52-1.17ZM172.27-17.87L172.27-10.25L172.27-9.79L172.27-9.79Q172.27-9.32 172.32-8.41L172.32-8.41L172.32-8.41Q172.38-7.50 172.56-6.56L172.56-6.56L172.56-6.56Q172.73-5.63 173.12-4.86L173.12-4.86L173.12-4.86Q173.50-4.10 174.14-3.87L174.14-3.87L172.27 0.06L172.27 0.06Q171.50 0.06 170.65-0.29L170.65-0.29L170.65-0.29Q169.80-0.64 169.01-1.29L169.01-1.29L169.01-1.29Q168.22-1.93 167.67-2.72L167.67-2.72L167.67-2.72Q167.11-3.52 166.82-4.45L166.82-4.45L166.82-4.45Q166.41-3.46 165.38-2.61L165.38-2.61L165.38-2.61Q164.36-1.76 163.07-1.08L163.07-1.08L163.07-1.08Q161.78-0.41 160.28-0.06L160.28-0.06L160.28-0.06Q158.79 0.29 157.50 0.29L157.50 0.29L157.50 0.29Q155.51 0.29 153.66-0.23L153.66-0.23L153.66-0.23Q151.82-0.76 150.41-1.93L150.41-1.93L150.41-1.93Q149.00-3.11 148.21-5.04L148.21-5.04L148.21-5.04Q147.42-6.97 147.42-9.79L147.42-9.79L147.42-9.79Q147.42-12.48 148.56-14.44L148.56-14.44L148.56-14.44Q149.71-16.41 151.49-17.67L151.49-17.67L151.49-17.67Q153.28-18.93 155.57-19.54L155.57-19.54L155.57-19.54Q157.85-20.16 160.20-20.16L160.20-20.16L165.18-20.16L165.18-20.16Q165.18-23.03 164.88-24.73L164.88-24.73L164.88-24.73Q164.59-26.43 163.89-27.22L163.89-27.22L163.89-27.22Q163.18-28.01 162.16-28.21L162.16-28.21L162.16-28.21Q161.13-28.42 159.73-28.42L159.73-28.42L159.73-28.42Q158.44-28.42 157.29-28.10L157.29-28.10L157.29-28.10Q156.15-27.77 155.19-27.33L155.19-27.33L155.19-27.33Q154.22-26.89 153.49-26.37L153.49-26.37L153.49-26.37Q152.75-25.84 152.40-25.55L152.40-25.55L149.77-29.59L149.77-29.59Q150.35-30.23 151.52-30.91L151.52-30.91L151.52-30.91Q152.70-31.58 154.22-32.11L154.22-32.11L154.22-32.11Q155.74-32.64 157.53-32.96L157.53-32.96L157.53-32.96Q159.32-33.28 161.25-33.28L161.25-33.28L161.25-33.28Q163.01-33.28 164.68-32.93L164.68-32.93L164.68-32.93Q166.35-32.58 167.72-31.76L167.72-31.76L167.72-31.76Q169.10-30.94 170.13-29.56L170.13-29.56L170.13-29.56Q171.15-28.18 171.56-26.13L171.56-26.13L171.56-26.13Q171.97-24.08 172.12-22.00L172.12-22.00L172.12-22.00Q172.27-19.92 172.27-17.87L172.27-17.87ZM165.23-7.91L165.23-16.00L161.48-16.00L161.48-16.00Q160.31-16.00 159.02-15.76L159.02-15.76L159.02-15.76Q157.73-15.53 156.62-14.88L156.62-14.88L156.62-14.88Q155.51-14.24 154.78-13.04L154.78-13.04L154.78-13.04Q154.04-11.84 154.04-9.96L154.04-9.96L154.04-9.96Q154.04-7.03 155.36-5.74L155.36-5.74L155.36-5.74Q156.68-4.45 159.20-4.45L159.20-4.45L159.20-4.45Q160.96-4.45 162.57-5.39L162.57-5.39L162.57-5.39Q164.18-6.33 165.23-7.91L165.23-7.91ZM227.11-18.57L227.11-1.11L227.11 0L220.08 0L220.08-17.99L220.08-17.99Q220.08-19.98 220.05-21.77L220.05-21.77L220.05-21.77Q220.02-23.55 219.67-24.96L219.67-24.96L219.67-24.96Q219.32-26.37 218.53-27.16L218.53-27.16L218.53-27.16Q217.73-27.95 216.09-27.95L216.09-27.95L216.09-27.95Q215.80-27.95 215.07-27.86L215.07-27.86L215.07-27.86Q214.34-27.77 213.34-27.51L213.34-27.51L213.34-27.51Q212.34-27.25 211.14-26.66L211.14-26.66L211.14-26.66Q209.94-26.07 208.77-25.14L208.77-25.14L208.77-25.14Q208.77-22.85 208.80-21.50L208.80-21.50L208.80-21.50Q208.83-20.16 208.83-18.57L208.83-18.57L208.83 0L201.74 0L201.74-17.99L201.74-17.99Q201.74-19.98 201.74-21.77L201.74-21.77L201.74-21.77Q201.74-23.55 201.39-24.96L201.39-24.96L201.39-24.96Q201.04-26.37 200.21-27.16L200.21-27.16L200.21-27.16Q199.39-27.95 197.81-27.95L197.81-27.95L197.81-27.95Q197.29-27.95 196.35-27.80L196.35-27.80L196.35-27.80Q195.41-27.66 194.38-27.30L194.38-27.30L194.38-27.30Q193.36-26.95 192.33-26.43L192.33-26.43L192.33-26.43Q191.31-25.90 190.61-25.20L190.61-25.20L190.61 0L183.46 0L183.46-33.05L189.84-33.05L190.61-29.65L190.61-29.65Q192.07-31.00 194.38-32.14L194.38-32.14L194.38-32.14Q196.70-33.28 199.22-33.28L199.22-33.28L199.22-33.28Q202.03-33.28 203.91-32.05L203.91-32.05L203.91-32.05Q205.78-30.82 207.66-28.42L207.66-28.42L207.66-28.42Q208.65-29.53 209.88-30.47L209.88-30.47L209.88-30.47Q211.11-31.41 212.43-32.05L212.43-32.05L212.43-32.05Q213.75-32.70 215.04-33.05L215.04-33.05L215.04-33.05Q216.33-33.40 217.50-33.40L217.50-33.40L217.50-33.40Q219.49-33.40 221.25-32.61L221.25-32.61L221.25-32.61Q223.01-31.82 224.33-30.35L224.33-30.35L224.33-30.35Q225.64-28.89 226.38-26.87L226.38-26.87L226.38-26.87Q227.11-24.84 227.11-22.50L227.11-22.50L227.11-18.57ZM251.02-33.40L251.02-33.40L251.02-33.40Q255-33.40 258.05-31.79L258.05-31.79L258.05-31.79Q261.09-30.18 263.06-27.51L263.06-27.51L263.06-27.51Q265.02-24.84 265.87-21.36L265.87-21.36L265.87-21.36Q266.72-17.87 266.19-14.12L266.19-14.12L243.22-14.12L243.22-14.12Q243.22-12.25 243.93-10.66L243.93-10.66L243.93-10.66Q244.63-9.08 245.83-7.94L245.83-7.94L245.83-7.94Q247.03-6.80 248.70-6.15L248.70-6.15L248.70-6.15Q250.37-5.51 252.30-5.51L252.30-5.51L252.30-5.51Q252.95-5.51 253.92-5.65L253.92-5.65L253.92-5.65Q254.88-5.80 255.97-6.18L255.97-6.18L255.97-6.18Q257.05-6.56 258.13-7.15L258.13-7.15L258.13-7.15Q259.22-7.73 260.04-8.55L260.04-8.55L262.62-4.63L262.62-4.63Q260.68-2.23 258.11-1.00L258.11-1.00L258.11-1.00Q255.53 0.23 251.54 0.23L251.54 0.23L251.54 0.23Q248.32 0.23 245.51-1.08L245.51-1.08L245.51-1.08Q242.70-2.40 240.70-4.69L240.70-4.69L240.70-4.69Q238.71-6.97 237.54-10.02L237.54-10.02L237.54-10.02Q236.37-13.07 236.37-16.58L236.37-16.58L236.37-16.58Q236.37-20.04 237.54-23.12L237.54-23.12L237.54-23.12Q238.71-26.19 240.67-28.48L240.67-28.48L240.67-28.48Q242.64-30.76 245.33-32.08L245.33-32.08L245.33-32.08Q248.03-33.40 251.02-33.40ZM243.46-19.28L259.63-19.28L259.63-19.28Q259.63-20.86 259.04-22.38L259.04-22.38L259.04-22.38Q258.46-23.91 257.43-25.14L257.43-25.14L257.43-25.14Q256.41-26.37 254.94-27.10L254.94-27.10L254.94-27.10Q253.48-27.83 251.78-27.89L251.78-27.89L251.78-27.89Q249.96-27.89 248.44-27.19L248.44-27.19L248.44-27.19Q246.91-26.48 245.80-25.31L245.80-25.31L245.80-25.31Q244.69-24.14 244.07-22.53L244.07-22.53L244.07-22.53Q243.46-20.92 243.46-19.28L243.46-19.28ZM299.24-33.05L299.24 0L292.09 0L292.09-33.05L299.24-33.05ZM299.88-43.59L299.88-43.59L299.88-43.59Q299.88-41.84 298.65-40.63L298.65-40.63L298.65-40.63Q297.42-39.43 295.66-39.43L295.66-39.43L295.66-39.43Q293.91-39.43 292.71-40.66L292.71-40.66L292.71-40.66Q291.50-41.89 291.50-43.59L291.50-43.59L291.50-43.59Q291.50-45.35 292.73-46.58L292.73-46.58L292.73-46.58Q293.96-47.81 295.66-47.81L295.66-47.81L295.66-47.81Q297.42-47.81 298.65-46.58L298.65-46.58L298.65-46.58Q299.88-45.35 299.88-43.59ZM308.55-2.64L308.55-2.64L311.54-7.38L311.54-7.38Q312.71-6.56 314.33-5.86L314.33-5.86L314.33-5.86Q315.94-5.16 318.40-5.16L318.40-5.16L318.40-5.16Q321.62-5.16 323.44-6.15L323.44-6.15L323.44-6.15Q325.25-7.15 325.25-9.08L325.25-9.08L325.25-9.08Q325.25-10.49 324.20-11.34L324.20-11.34L324.20-11.34Q323.14-12.19 321.53-12.80L321.53-12.80L321.53-12.80Q319.92-13.42 318.08-13.97L318.08-13.97L318.08-13.97Q316.23-14.53 314.65-15.35L314.65-15.35L314.65-15.35Q311.54-16.99 309.99-18.81L309.99-18.81L309.99-18.81Q308.44-20.63 308.44-23.61L308.44-23.61L308.44-23.61Q308.44-26.07 309.46-27.95L309.46-27.95L309.46-27.95Q310.49-29.82 312.13-31.08L312.13-31.08L312.13-31.08Q313.77-32.34 315.88-32.99L315.88-32.99L315.88-32.99Q317.99-33.63 320.16-33.63L320.16-33.63L320.16-33.63Q323.09-33.63 325.55-33.02L325.55-33.02L325.55-33.02Q328.01-32.40 330.29-30.94L330.29-30.94L328.01-26.07L328.01-26.07Q326.25-27.07 324.20-27.45L324.20-27.45L324.20-27.45Q322.15-27.83 320.16-27.83L320.16-27.83L320.16-27.83Q317.99-27.83 316.73-26.87L316.73-26.87L316.73-26.87Q315.47-25.90 315.47-23.85L315.47-23.85L315.47-23.85Q315.47-22.27 316.61-21.36L316.61-21.36L316.61-21.36Q317.75-20.45 319.57-19.75L319.57-19.75L319.57-19.75Q321.39-19.04 323.44-18.34L323.44-18.34L323.44-18.34Q325.49-17.64 327.28-16.55L327.28-16.55L327.28-16.55Q329.06-15.47 330.23-13.83L330.23-13.83L330.23-13.83Q331.41-12.19 331.41-9.61L331.41-9.61L331.41-9.61Q331.41-7.09 330.41-5.21L330.41-5.21L330.41-5.21Q329.41-3.34 327.71-2.11L327.71-2.11L327.71-2.11Q326.02-0.88 323.79-0.29L323.79-0.29L323.79-0.29Q321.56 0.29 319.04 0.29L319.04 0.29L319.04 0.29Q317.52 0.29 316.23 0.21L316.23 0.21L316.23 0.21Q314.94 0.12 313.71-0.18L313.71-0.18L313.71-0.18Q312.48-0.47 311.25-1.05L311.25-1.05L311.25-1.05Q310.02-1.64 308.55-2.64ZM381.45-11.84L381.45-11.84L381.45-11.84Q381.45-9.49 380.48-7.29L380.48-7.29L380.48-7.29Q379.51-5.10 377.75-3.43L377.75-3.43L377.75-3.43Q376.00-1.76 373.42-0.76L373.42-0.76L373.42-0.76Q370.84 0.23 367.56 0.23L367.56 0.23L367.56 0.23Q366.15 0.23 364.66 0.09L364.66 0.09L364.66 0.09Q363.16-0.06 361.64-0.41L361.64-0.41L361.64-0.41Q360.12-0.76 358.74-1.38L358.74-1.38L358.74-1.38Q357.36-1.99 356.37-2.87L356.37-2.87L357.60-7.91L357.60-7.91Q358.42-7.44 359.68-7.00L359.68-7.00L359.68-7.00Q360.94-6.56 362.29-6.18L362.29-6.18L362.29-6.18Q363.63-5.80 364.98-5.57L364.98-5.57L364.98-5.57Q366.33-5.33 367.50-5.33L367.50-5.33L367.50-5.33Q371.07-5.33 372.98-7.00L372.98-7.00L372.98-7.00Q374.88-8.67 374.88-11.95L374.88-11.95L374.88-11.95Q374.88-13.95 373.54-15.35L373.54-15.35L373.54-15.35Q372.19-16.76 370.17-17.90L370.17-17.90L370.17-17.90Q368.14-19.04 365.80-20.19L365.80-20.19L365.80-20.19Q363.46-21.33 361.41-22.88L361.41-22.88L361.41-22.88Q359.36-24.43 358.01-26.54L358.01-26.54L358.01-26.54Q356.66-28.65 356.66-31.82L356.66-31.82L356.66-31.82Q356.66-34.69 357.71-36.91L357.71-36.91L357.71-36.91Q358.77-39.14 360.56-40.69L360.56-40.69L360.56-40.69Q362.34-42.25 364.72-43.07L364.72-43.07L364.72-43.07Q367.09-43.89 369.73-43.89L369.73-43.89L369.73-43.89Q372.42-43.89 375.18-43.39L375.18-43.39L375.18-43.39Q377.93-42.89 379.63-41.78L379.63-41.78L379.63-41.78Q379.28-41.02 378.81-40.11L378.81-40.11L378.81-40.11Q378.34-39.20 377.93-38.41L377.93-38.41L377.93-38.41Q377.52-37.62 377.23-37.09L377.23-37.09L377.23-37.09Q376.93-36.56 376.88-36.50L376.88-36.50L376.88-36.50Q376.52-36.68 376.08-36.97L376.08-36.97L376.08-36.97Q375.64-37.27 374.82-37.56L374.82-37.56L374.82-37.56Q374.00-37.85 372.66-37.97L372.66-37.97L372.66-37.97Q371.31-38.09 369.20-37.91L369.20-37.91L369.20-37.91Q368.03-37.79 366.97-37.24L366.97-37.24L366.97-37.24Q365.92-36.68 365.10-35.86L365.10-35.86L365.10-35.86Q364.28-35.04 363.81-34.01L363.81-34.01L363.81-34.01Q363.34-32.99 363.34-32.05L363.34-32.05L363.34-32.05Q363.34-29.71 364.69-28.27L364.69-28.27L364.69-28.27Q366.04-26.84 368.03-25.75L368.03-25.75L368.03-25.75Q370.02-24.67 372.36-23.64L372.36-23.64L372.36-23.64Q374.71-22.62 376.73-21.15L376.73-21.15L376.73-21.15Q378.75-19.69 380.10-17.49L380.10-17.49L380.10-17.49Q381.45-15.29 381.45-11.84ZM412.38-17.87L412.38-10.25L412.38-9.79L412.38-9.79Q412.38-9.32 412.44-8.41L412.44-8.41L412.44-8.41Q412.50-7.50 412.68-6.56L412.68-6.56L412.68-6.56Q412.85-5.63 413.23-4.86L413.23-4.86L413.23-4.86Q413.61-4.10 414.26-3.87L414.26-3.87L412.38 0.06L412.38 0.06Q411.62 0.06 410.77-0.29L410.77-0.29L410.77-0.29Q409.92-0.64 409.13-1.29L409.13-1.29L409.13-1.29Q408.34-1.93 407.78-2.72L407.78-2.72L407.78-2.72Q407.23-3.52 406.93-4.45L406.93-4.45L406.93-4.45Q406.52-3.46 405.50-2.61L405.50-2.61L405.50-2.61Q404.47-1.76 403.18-1.08L403.18-1.08L403.18-1.08Q401.89-0.41 400.40-0.06L400.40-0.06L400.40-0.06Q398.91 0.29 397.62 0.29L397.62 0.29L397.62 0.29Q395.63 0.29 393.78-0.23L393.78-0.23L393.78-0.23Q391.93-0.76 390.53-1.93L390.53-1.93L390.53-1.93Q389.12-3.11 388.33-5.04L388.33-5.04L388.33-5.04Q387.54-6.97 387.54-9.79L387.54-9.79L387.54-9.79Q387.54-12.48 388.68-14.44L388.68-14.44L388.68-14.44Q389.82-16.41 391.61-17.67L391.61-17.67L391.61-17.67Q393.40-18.93 395.68-19.54L395.68-19.54L395.68-19.54Q397.97-20.16 400.31-20.16L400.31-20.16L405.29-20.16L405.29-20.16Q405.29-23.03 405-24.73L405-24.73L405-24.73Q404.71-26.43 404.00-27.22L404.00-27.22L404.00-27.22Q403.30-28.01 402.28-28.21L402.28-28.21L402.28-28.21Q401.25-28.42 399.84-28.42L399.84-28.42L399.84-28.42Q398.55-28.42 397.41-28.10L397.41-28.10L397.41-28.10Q396.27-27.77 395.30-27.33L395.30-27.33L395.30-27.33Q394.34-26.89 393.60-26.37L393.60-26.37L393.60-26.37Q392.87-25.84 392.52-25.55L392.52-25.55L389.88-29.59L389.88-29.59Q390.47-30.23 391.64-30.91L391.64-30.91L391.64-30.91Q392.81-31.58 394.34-32.11L394.34-32.11L394.34-32.11Q395.86-32.64 397.65-32.96L397.65-32.96L397.65-32.96Q399.43-33.28 401.37-33.28L401.37-33.28L401.37-33.28Q403.13-33.28 404.79-32.93L404.79-32.93L404.79-32.93Q406.46-32.58 407.84-31.76L407.84-31.76L407.84-31.76Q409.22-30.94 410.24-29.56L410.24-29.56L410.24-29.56Q411.27-28.18 411.68-26.13L411.68-26.13L411.68-26.13Q412.09-24.08 412.24-22.00L412.24-22.00L412.24-22.00Q412.38-19.92 412.38-17.87L412.38-17.87ZM405.35-7.91L405.35-16.00L401.60-16.00L401.60-16.00Q400.43-16.00 399.14-15.76L399.14-15.76L399.14-15.76Q397.85-15.53 396.74-14.88L396.74-14.88L396.74-14.88Q395.63-14.24 394.89-13.04L394.89-13.04L394.89-13.04Q394.16-11.84 394.16-9.96L394.16-9.96L394.16-9.96Q394.16-7.03 395.48-5.74L395.48-5.74L395.48-5.74Q396.80-4.45 399.32-4.45L399.32-4.45L399.32-4.45Q401.07-4.45 402.69-5.39L402.69-5.39L402.69-5.39Q404.30-6.33 405.35-7.91L405.35-7.91ZM467.23-18.57L467.23-1.11L467.23 0L460.20 0L460.20-17.99L460.20-17.99Q460.20-19.98 460.17-21.77L460.17-21.77L460.17-21.77Q460.14-23.55 459.79-24.96L459.79-24.96L459.79-24.96Q459.43-26.37 458.64-27.16L458.64-27.16L458.64-27.16Q457.85-27.95 456.21-27.95L456.21-27.95L456.21-27.95Q455.92-27.95 455.19-27.86L455.19-27.86L455.19-27.86Q454.45-27.77 453.46-27.51L453.46-27.51L453.46-27.51Q452.46-27.25 451.26-26.66L451.26-26.66L451.26-26.66Q450.06-26.07 448.89-25.14L448.89-25.14L448.89-25.14Q448.89-22.85 448.92-21.50L448.92-21.50L448.92-21.50Q448.95-20.16 448.95-18.57L448.95-18.57L448.95 0L441.86 0L441.86-17.99L441.86-17.99Q441.86-19.98 441.86-21.77L441.86-21.77L441.86-21.77Q441.86-23.55 441.50-24.96L441.50-24.96L441.50-24.96Q441.15-26.37 440.33-27.16L440.33-27.16L440.33-27.16Q439.51-27.95 437.93-27.95L437.93-27.95L437.93-27.95Q437.40-27.95 436.46-27.80L436.46-27.80L436.46-27.80Q435.53-27.66 434.50-27.30L434.50-27.30L434.50-27.30Q433.48-26.95 432.45-26.43L432.45-26.43L432.45-26.43Q431.43-25.90 430.72-25.20L430.72-25.20L430.72 0L423.57 0L423.57-33.05L429.96-33.05L430.72-29.65L430.72-29.65Q432.19-31.00 434.50-32.14L434.50-32.14L434.50-32.14Q436.82-33.28 439.34-33.28L439.34-33.28L439.34-33.28Q442.15-33.28 444.02-32.05L444.02-32.05L444.02-32.05Q445.90-30.82 447.77-28.42L447.77-28.42L447.77-28.42Q448.77-29.53 450-30.47L450-30.47L450-30.47Q451.23-31.41 452.55-32.05L452.55-32.05L452.55-32.05Q453.87-32.70 455.16-33.05L455.16-33.05L455.16-33.05Q456.45-33.40 457.62-33.40L457.62-33.40L457.62-33.40Q459.61-33.40 461.37-32.61L461.37-32.61L461.37-32.61Q463.13-31.82 464.44-30.35L464.44-30.35L464.44-30.35Q465.76-28.89 466.49-26.87L466.49-26.87L466.49-26.87Q467.23-24.84 467.23-22.50L467.23-22.50L467.23-18.57Z" fill="#ffffff"></path></g></g><style>text {
  font-size: 64px;
  font-family: Arial Black;
  dominant-baseline: central;
  text-anchor: middle;
}</style></svg>